<svg xmlns="http://www.w3.org/2000/svg" width="20" height="20" viewBox="0 0 20 20"><circle cx="2.4" cy="2.4" r="1.3" fill="#ddd" opacity="0.2"/><circle cx="6.199999999999999" cy="2.4" r="1.3" fill="#ddd" opacity="0.38"/><circle cx="10.0" cy="2.4" r="1.3" fill="#ddd" opacity="0.56"/><circle cx="13.799999999999999" cy="2.4" r="1.3" fill="#ddd" opacity="0.38"/><circle cx="17.599999999999998" cy="2.4" r="1.3" fill="#ddd" opacity="0.2"/><circle cx="2.4" cy="6.199999999999999" r="1.3" fill="#ddd" opacity="0.38"/><circle cx="6.199999999999999" cy="6.199999999999999" r="1.3" fill="#ddd" opacity="0.56"/><circle cx="10.0" cy="6.199999999999999" r="1.3" fill="#ddd" opacity="0.74"/><circle cx="13.799999999999999" cy="6.199999999999999" r="1.3" fill="#ddd" opacity="0.56"/><circle cx="17.599999999999998" cy="6.199999999999999" r="1.3" fill="#ddd" opacity="0.38"/><circle cx="2.4" cy="10.0" r="1.3" fill="#ddd" opacity="0.56"/><circle cx="6.199999999999999" cy="10.0" r="1.3" fill="#ddd" opacity="0.74"/><circle cx="10.0" cy="10.0" r="1.3" fill="#ddd" opacity="0.9199999999999999"/><circle cx="13.799999999999999" cy="10.0" r="1.3" fill="#ddd" opacity="0.74"/><circle cx="17.599999999999998" cy="10.0" r="1.3" fill="#ddd" opacity="0.56"/><circle cx="2.4" cy="13.799999999999999" r="1.3" fill="#ddd" opacity="0.38"/><circle cx="6.199999999999999" cy="13.799999999999999" r="1.3" fill="#ddd" opacity="0.56"/><circle cx="10.0" cy="13.799999999999999" r="1.3" fill="#ddd" opacity="0.74"/><circle cx="13.799999999999999" cy="13.799999999999999" r="1.3" fill="#ddd" opacity="0.56"/><circle cx="17.599999999999998" cy="13.799999999999999" r="1.3" fill="#ddd" opacity="0.38"/><circle cx="2.4" cy="17.599999999999998" r="1.3" fill="#ddd" opacity="0.2"/><circle cx="6.199999999999999" cy="17.599999999999998" r="1.3" fill="#ddd" opacity="0.38"/><circle cx="10.0" cy="17.599999999999998" r="1.3" fill="#ddd" opacity="0.56"/><circle cx="13.799999999999999" cy="17.599999999999998" r="1.3" fill="#ddd" opacity="0.38"/><circle cx="17.599999999999998" cy="17.599999999999998" r="1.3" fill="#ddd" opacity="0.2"/></svg>